<?xml version="1.0" encoding="utf-8"?>
<!-- Generator: Adobe Illustrator 26.0.1, SVG Export Plug-In . SVG Version: 6.00 Build 0)  -->
<svg version="1.1" id="Layer_1" xmlns="http://www.w3.org/2000/svg" xmlns:xlink="http://www.w3.org/1999/xlink" x="0px" y="0px"
	 viewBox="0 0 500 295" style="enable-background:new 0 0 500 295;" xml:space="preserve">
<style type="text/css">
	.st0{opacity:0.28;fill:#42AB51;}
	.st1{fill:#FFFFFF;}
	.st2{fill:#E6E6E6;}
	.st3{fill:#39B54A;}
	.st4{fill:none;stroke:#FFFFFF;stroke-miterlimit:10;}
	.st5{fill:#FFB939;}
	.st6{fill:none;stroke:#B3B3B3;stroke-miterlimit:10;}
	.st7{fill:none;stroke:#B3B3B3;stroke-miterlimit:10;stroke-dasharray:6.9377,6.9377;}
	.st8{fill:#FFA320;}
	.st9{fill:#EB4334;}
	.st10{fill:#3943B3;}
	.st11{fill:#FFC69A;}
	.st12{fill:#DAA184;}
	.st13{fill:#411809;}
	.st14{fill:#4753DE;}
	.st15{fill:#FFB780;}
	.st16{opacity:0.1;}
	.st17{fill:none;stroke:#3943B3;stroke-width:2;stroke-miterlimit:10;}
	.st18{fill:none;stroke:#3943B3;stroke-width:2;stroke-linecap:round;stroke-miterlimit:10;}
	.st19{fill:none;stroke:#3943B3;stroke-linecap:round;stroke-miterlimit:10;}
	.st20{fill:none;stroke:#3943B3;stroke-miterlimit:10;}
</style>
<path class="st0" d="M67.9,36.78C123.65-7.74,195.79,7.85,198.8,8.54c45.59,10.59,43.54,34.35,93.25,52.19
	c72.55,26.02,110.67-12.48,152.28,17.11c32.52,23.13,46.14,72.9,36.79,110.36c-17.3,69.3-116.48,109.54-191.63,100.09
	c-71.75-9.02-90.66-59.45-170.24-58.17c-51.47,0.83-69.03,22.32-88.97,8.55C-8.03,212.24-1.9,92.53,67.9,36.78z"/>
<path class="st1" d="M392.06,248.73H101.72c-5.3,0-9.6-4.3-9.6-9.6V49.12c0-5.3,4.3-9.6,9.6-9.6h290.34c5.3,0,9.6,4.3,9.6,9.6
	v190.01C401.67,244.44,397.37,248.73,392.06,248.73z"/>
<path class="st2" d="M389.73,40.24H106.04c-7.39-0.28-13.5,4.76-13.28,13.3v4.63l308.28-0.28v-5.27
	C401.05,46.06,395.88,40.24,389.73,40.24z"/>
<path class="st3" d="M224.25,190.45H119.84c-1.29,0-2.33-1.04-2.33-2.33v-33.96c0-1.29,1.04-2.33,2.33-2.33h104.41
	c1.29,0,2.33,1.04,2.33,2.33v33.96C226.58,189.4,225.54,190.45,224.25,190.45z"/>
<path class="st1" d="M149.87,171.68c0,5.79-4.69,10.49-10.49,10.49c-5.79,0-10.49-4.69-10.49-10.49c0-5.79,4.69-10.49,10.49-10.49
	C145.18,161.2,149.87,165.89,149.87,171.68z"/>
<g>
	<line class="st4" x1="158.7" y1="172.79" x2="213.89" y2="172.79"/>
	<line class="st4" x1="158.7" y1="165.65" x2="185.15" y2="165.65"/>
	<line class="st4" x1="158.7" y1="179.41" x2="213.89" y2="179.41"/>
</g>
<path class="st5" d="M384.36,80.92v-5.27c0-3.32-2.69-6.01-6.01-6.01H263.51c-3.32,0-6.01,2.69-6.01,6.01v51.46L384.36,80.92z"/>
<rect x="289.48" y="73.15" transform="matrix(0.9286 -0.3711 0.3711 0.9286 -14.7534 118.6988)" class="st5" width="23.17" height="49.07"/>
<path class="st6" d="M379.13,217.35h-116.4c-2.89,0-5.23-2.34-5.23-5.23V74.87c0-2.89,2.34-5.23,5.23-5.23h116.4
	c2.89,0,5.23,2.34,5.23,5.23v137.25C384.36,215,382.02,217.35,379.13,217.35z"/>
<rect x="281.61" y="89.82" transform="matrix(0.9286 -0.3711 0.3711 0.9286 -21.501 116.9657)" class="st5" width="23.17" height="49.07"/>
<rect x="269.44" y="108.07" transform="matrix(0.9286 -0.3711 0.3711 0.9286 -24.3352 112.8289)" class="st5" width="23.17" height="23.17"/>
<rect x="353.7" y="79.3" transform="matrix(0.9286 -0.3711 0.3711 0.9286 -9.461 142.3942)" class="st5" width="23.17" height="32.97"/>
<rect x="117.87" y="69.64" class="st2" width="108.71" height="15.79"/>
<rect x="117.87" y="200.37" class="st2" width="108.71" height="6.09"/>
<rect x="117.87" y="211.72" class="st2" width="108.71" height="6.09"/>
<g>
	<path class="st7" d="M224.25,141.88H119.84c-1.29,0-2.33-1.04-2.33-2.33v-33.96c0-1.29,1.04-2.33,2.33-2.33h104.41
		c1.29,0,2.33,1.04,2.33,2.33v33.96C226.58,140.84,225.54,141.88,224.25,141.88C224.25,141.88,225.54,141.88,224.25,141.88z"/>
</g>
<g>
	<circle class="st8" cx="373.8" cy="49.99" r="2.53"/>
	<circle class="st9" cx="382.23" cy="49.99" r="2.53"/>
	<circle class="st10" cx="390.66" cy="49.99" r="2.53"/>
</g>
<path class="st1" d="M360.04,54.16H105.22c-2.74,0-4.96-2.22-4.96-4.96l0,0c0-2.74,2.22-4.96,4.96-4.96h254.81
	c2.74,0,4.96,2.22,4.96,4.96l0,0C365,51.94,362.78,54.16,360.04,54.16z"/>
<path class="st6" d="M392.06,248.73H101.72c-5.3,0-9.6-4.3-9.6-9.6V49.12c0-5.3,4.3-9.6,9.6-9.6h290.34c5.3,0,9.6,4.3,9.6,9.6
	v190.01C401.67,244.44,397.37,248.73,392.06,248.73z"/>
<path class="st3" d="M183.41,141.88H79c-1.29,0-2.33-1.04-2.33-2.33v-33.96c0-1.29,1.04-2.33,2.33-2.33h104.41
	c1.29,0,2.33,1.04,2.33,2.33v33.96C185.74,140.84,184.7,141.88,183.41,141.88z"/>
<path class="st1" d="M109.04,123.12c0,5.79-4.69,10.49-10.49,10.49c-5.79,0-10.49-4.69-10.49-10.49c0-5.79,4.69-10.49,10.49-10.49
	C104.34,112.64,109.04,117.33,109.04,123.12z"/>
<g>
	<line class="st4" x1="117.87" y1="124.22" x2="173.05" y2="124.22"/>
	<line class="st4" x1="117.87" y1="117.08" x2="144.31" y2="117.08"/>
	<line class="st4" x1="117.87" y1="130.85" x2="173.05" y2="130.85"/>
</g>
<g>
	<g>
		<path class="st8" d="M65.1,264.47c0,0,6.84,1.94,10.2,3.81c2.69,1.5,3.03,2.74-0.3,2.75c-4.25,0.01-9.3-0.08-12.33-0.55
			c-2.05-0.32-1.2-5.14-0.85-5.96L65.1,264.47z"/>
		<polygon class="st11" points="64.5,264.48 65.19,261.82 61.65,262.23 61.81,264.52 		"/>
		<path class="st10" d="M77.36,270.4c-3.69-0.13-11.43-0.45-13.46-0.93c-1.2-0.29-2-0.81-2.55-1.3c0.07,1.16,0.41,2.16,1.31,2.3
			c3.03,0.47,8.08,0.56,12.33,0.55C76.44,271.02,77.19,270.79,77.36,270.4z"/>
		<path class="st12" d="M48.9,171.7c0,0-0.85-4.03,6.32-9.39c7.17-5.36,11.04-9.25,11.04-9.25l6.79-23.53l2.36,1.11
			c0,0,0.15,18.47-0.89,23.95C73.49,160.08,50.77,183.86,48.9,171.7z"/>
		<path class="st8" d="M67.53,147.26l7.71,1.12l-0.29,6.44c0,0-11.27,17.59-18.61,20.37c-7.34,2.78-11.74-1.51-9.95-4.57
			c1.8-3.06,18.67-17.37,18.67-17.37L67.53,147.26z"/>
		
			<rect x="69.22" y="142.84" transform="matrix(-0.1559 0.9878 -0.9878 -0.1559 227.9018 100.1773)" class="st5" width="3.86" height="9.24"/>
		<path class="st12" d="M75.41,136.01c0,0-4.46-10.9-3.15-12.16c0,0,4.17,7.03,5.43,9.99"/>
		<g>
			<path class="st5" d="M22.84,257.79c0,0,4.81,5.23,6.69,8.58c1.51,2.68,1.15,3.92-1.69,2.19c-3.63-2.21-7.88-4.93-10.22-6.92
				c-1.58-1.34,1.67-5,2.39-5.53L22.84,257.79z"/>
			<polygon class="st11" points="22.32,257.48 24.3,255.58 21.07,254.08 20.01,256.11 			"/>
		</g>
		<g>
			<path class="st10" d="M62.85,199.16l-14.05-7.83c0,0,2.36,29.63,11.33,42.72c0,0,0.07,23.83,1.64,28.97l3.29-0.08
				c0,0,5.02-27.11,4.55-31.43C68.75,223.56,67.92,212.1,62.85,199.16z"/>
		</g>
		<g>
			<path class="st13" d="M47.97,144.6c0,0-5.62,2.76-6.07,13.11c-0.45,10.35-2.24,10.73-2.24,10.73s7.61,4.43,16.12,0L47.97,144.6z"
				/>
			<path class="st11" d="M54.75,145.57c2.26,2.07,3.35,5.4,3.46,8.57c0.12,3.43-5.15,3.9-8.13,2.23c-2.65-1.48-4.53-4.79-4.03-7.62
				C46.71,145.08,51.74,142.81,54.75,145.57z"/>
			<path class="st11" d="M51.67,149.78l-5.54,0.86l2.08,13.4c0.3,1.92,2.09,3.23,4.01,2.93l0,0c2.06-0.32,3.39-2.36,2.86-4.38
				L51.67,149.78z"/>
			<path class="st13" d="M52.26,144.87c0,0,1.37,7.49-6.13,9.33c-5.24,1.28-5.09-11.75,2.3-12.02c10.39-0.38,8.05,5.59,8.05,5.59
				S53.98,144.11,52.26,144.87z"/>
			<polygon class="st12" points="53.97,158.38 49.76,156.53 53.68,157.24 			"/>
		</g>
		<path class="st10" d="M60.2,193.02l-17.11,4.55c0,0-4.81,6.53-3.05,31.95c0,0-14.94,12.56-19.11,24.79l2.77,1.81
			c0,0,21.04-18.79,23.99-21.98C51.25,230.31,58.11,217.58,60.2,193.02z"/>
		<path class="st5" d="M58.39,163.9c-0.36-1.53-1.45-2.78-2.93-3.32c-3.17-1.16-10.88-1.22-10.95,9.19
			c-0.14,20.49-1.43,27.79-1.43,27.79s4.11,3.57,19.76,1.6l-2.06-12.94l1.83-3.98c1.17-3.15,1.06-6.64-0.33-9.71L58.39,163.9z"/>
		<path class="st11" d="M52.03,172.53c0,0-0.85-4.03,6.32-9.39c7.17-5.36,11.04-9.25,11.04-9.25l6.79-23.53l2.36,1.11
			c0,0,0.15,18.47-0.89,23.95C76.62,160.91,53.9,184.68,52.03,172.53z"/>
		<path class="st11" d="M75.65,132.56c0,0-1.57-6.63-0.26-7.88c0,0,1.28,2.75,2.54,5.72c0.39,0.93,4.41,3.82,2.34,3.51
			C78.19,133.6,75.65,132.56,75.65,132.56z"/>
		<path class="st11" d="M55.77,146.85c0,0,1.7,1.77,3.06,2.11c0,0-0.29,1.22-1.31,1.81L55.77,146.85z"/>
		<path class="st10" d="M30.18,269.26c-3.08-2.04-9.51-6.36-10.98-7.84c-0.87-0.87-1.28-1.74-1.49-2.44
			c-0.55,1.02-0.78,2.06-0.09,2.65c2.34,1.99,6.59,4.71,10.22,6.92C29.06,269.31,29.83,269.5,30.18,269.26z"/>
		<path class="st11" d="M20.27,256.26c0,0,3.74,6.47,5.4,4.79l-2.76-4.13L20.27,256.26z"/>
		<path class="st11" d="M62.21,264.41c0,0,6.56,3.68,7.02,1.37l-4.58-1.93L62.21,264.41z"/>
		<path class="st5" d="M71.22,147.55l7.04,1.29l-0.42,8.12c0,0-10.46,15.74-17.8,18.51c-7.34,2.78-11.74-1.51-9.95-4.57
			c1.8-3.06,18.67-17.37,18.67-17.37L71.22,147.55z"/>
		
			<rect x="72.91" y="143.13" transform="matrix(-0.1559 0.9878 -0.9878 -0.1559 232.456 96.8653)" class="st5" width="3.86" height="9.24"/>
		<path class="st10" d="M62.85,199.16l1.83,5.17l-11.82,13.04l1.11-17.61C53.98,199.76,57.74,199.88,62.85,199.16z"/>
		<path class="st14" d="M49.13,227.58c-2.41,2.48-3.18,3.61-3.52,5.07c-0.28,1.19,0.02,1.35-0.31,2.07c-0.91,1.97-3.48,1.56-6.62,3
			c-2.3,1.05-3.81,2.74-6.83,6.1c-1.5,1.67-1.37,1.77-3.83,4.86c-2.92,3.67-4.69,5.52-5.52,6.65l1.19,0.78
			c0,0,21.04-18.79,23.99-21.98c1.59-1.71,3.85-5.23,6.04-10.79C53.34,223.26,51.92,224.72,49.13,227.58z"/>
		
			<rect x="60.53" y="260.99" transform="matrix(-1 -1.224647e-16 1.224647e-16 -1 126.5803 524.1531)" class="st10" width="5.52" height="2.18"/>
		
			<rect x="19.59" y="253.77" transform="matrix(-0.866 -0.5 0.5 -0.866 -85.7256 486.738)" class="st10" width="5.52" height="2.18"/>
	</g>
	<g>
		<g>
			<path class="st5" d="M41.66,152.94l12.62-9.97c-2.75-3.49-7.81-4.08-11.3-1.33C39.5,144.4,38.9,149.46,41.66,152.94"/>
		</g>
		<path class="st8" d="M45.69,140.24c-0.96,0.28-1.88,0.74-2.71,1.4c-3.49,2.75-4.08,7.81-1.33,11.3l3.29-2.6
			C42.75,147.2,43.1,142.98,45.69,140.24z"/>
		
			<rect x="39.67" y="145.99" transform="matrix(0.8015 -0.598 0.598 0.8015 -78.2584 58.5035)" class="st8" width="18.66" height="2.3"/>
	</g>
	<path class="st10" d="M62.62,182.24c1-2.68,1.05-5.6,0.2-8.3c-4.77,1.74-8.84,1.39-11.93,0.44c-2.58-9.25,1.47-13.38,2.53-14.27
		c-1.01-0.11-2.15-0.06-3.27,0.24c-1.62,2.32-3.29,6.48-1.89,13c-2.4-1.16-3.75-2.45-3.75-2.45l0,0
		c-0.18,19.62-1.91,27.56-1.91,27.56s4.6,2.68,20.25,0.7l-2.06-12.94L62.62,182.24z"/>
	<path class="st14" d="M69.61,231.5c-0.86-7.95-1.69-19.4-6.76-32.34l-2.06-12.94l1.83-3.98c1-2.68,1.05-5.6,0.2-8.3
		c-0.82,0.3-1.6,0.51-2.38,0.7c0.22,2.3,0.33,5.29-1.17,8.47c-0.52,1.09-1.31,2.4-1.65,4.55c-0.4,2.54,0.1,4.59,0.41,5.79
		c1.77,6.85,3.52,11.79,3.52,11.79c2.44,6.89,3.66,10.33,3.72,12c0.24,6.27-2.62,9.79-0.21,13.03c1.16,1.56,2.79,2.04,2.9,3.72
		c0.1,1.59-1.31,2.14-2.28,4.14c-1.32,2.73-0.15,4.71,0,8.69c0.15,4.04-0.97,4.52-1.45,8.89c-0.26,2.34-0.25,4.97-0.04,7.25
		l0.86-0.02C65.06,262.94,70.08,235.82,69.61,231.5z"/>
</g>
<g>
	<g>
		<polygon class="st9" points="153.54,267.65 126.49,267.65 135.3,223.07 144.73,223.07 		"/>
		<rect x="120.09" y="265.43" class="st9" width="38.6" height="4.61"/>
	</g>
	<polygon class="st9" points="153.54,267.65 126.49,267.65 135.3,223.07 144.73,223.07 	"/>
	<polygon class="st1" points="131.57,241.96 148.46,241.96 147.08,234.98 132.95,234.98 	"/>
	<polygon class="st1" points="128.34,258.3 151.69,258.3 150.31,251.32 129.72,251.32 	"/>
</g>
<g>
	<g>
		<path class="st10" d="M443.67,261.02c0,0-10.59,5.83-14.08,5.87c-3.48,0.04-0.91,1.54,2.89,1.89c3.01,0.28,9.02-0.58,12.53-1.25
			c0.27-0.05,1.11-0.91,1.11-0.91c0.24,0.83,0.24,0.83,0.24,0.83c0.33,0.07,1.82-0.15,1.82-0.15c0.13-1.78-0.75-6.3-0.75-6.3
			L443.67,261.02z"/>
		<g>
			<polygon class="st15" points="443.67,261.02 443.81,258.19 447.57,258.38 447.44,260.99 			"/>
		</g>
	</g>
</g>
<path class="st10" d="M443.55,176.17l12.54,2.15c0,0-3.82,33.52-7.78,46.57c0,0,2.6,22.45-0.18,34.59l-4.97,0.24
	c0,0-4.23-28.71-5.38-33.55C436.39,220.34,438.11,206.3,443.55,176.17z"/>
<polygon class="st10" points="442.06,256.89 442.43,260.14 448.65,259.99 448.99,257.07 "/>
<g>
	<g>
		<g>
			<path class="st10" d="M458.47,262.17c0,0-10.59,5.83-14.08,5.87c-3.48,0.04-0.91,1.54,2.89,1.89c3.01,0.28,9.02-0.58,12.53-1.25
				c0.27-0.05,1.11-0.91,1.11-0.91c0.24,0.83,0.24,0.83,0.24,0.83c0.33,0.07,1.82-0.15,1.82-0.15c0.13-1.78-0.75-6.3-0.75-6.3
				L458.47,262.17z"/>
			<g>
				<polygon class="st15" points="458.47,262.17 458.61,259.34 462.37,259.52 462.24,262.14 				"/>
			</g>
		</g>
	</g>
	<path class="st10" d="M449.63,178.15l13.29,10.36c0,0,4.37,6.45-2.31,36.75c0,0,5.79,16.67,2.09,35.3l-4.92,0.75
		c0,0-5.94-30.88-7.58-35.58C448.24,220.07,446.66,204.39,449.63,178.15z"/>
	<polygon class="st10" points="456.55,258.3 457.18,261.51 463.37,260.86 463.47,257.93 	"/>
	<polygon class="st10" points="448.66,188.3 441.44,188.11 440.29,195.04 450.74,212.96 	"/>
</g>
<path class="st10" d="M443.87,268.55"/>
<g>
	<g>
		<path class="st5" d="M456.36,150.97c0,0-4.93-4.45-10.94,4.5c-6.01,8.96-9.95,13.18-9.95,13.18l-22.82-12.58l-2.38,4.85
			c0,0,20.56,23.52,27.09,21.93C443.89,181.26,471.09,152.46,456.36,150.97z"/>
		<path class="st15" d="M410.42,161.08c0,0-11.05-8.51-5.79-7.01c2.39,0.68,4.49,2.49,5.33,1.74c0.82-0.73-0.93-1.41-1.23-3.04
			c-0.27-1.47,4.92,4.05,4.92,4.05L410.42,161.08z"/>
		<g class="st16">
			<polygon points="418.12,163.41 427.59,172.25 416.89,167.24 			"/>
		</g>
		<g class="st16">
			<g>
				<polygon points="434.73,177.27 446.14,166.94 446.14,169.67 440.44,178.79 				"/>
			</g>
		</g>
		<polygon class="st5" points="409,160.92 411.35,162.69 415.71,157.37 413.36,155.6 		"/>
	</g>
	<path class="st5" d="M451.6,147.37c3.81-1.4,14.62-2.31,16.28,6.91c1.52,8.43-1.69,15.76-2.95,21.74
		c-0.9,4.26-1.38,10.69-1.38,10.69s-7.08,8.36-20.24,4.62l0.85-14.32l0.9-7.93c-0.73-9-0.52-10.1,1.09-14.63
		c0.67-1.89,3.13-5.97,4.93-6.85C451.24,147.51,451.42,147.43,451.6,147.37z"/>
	<path class="st10" d="M445.79,162.07l-1.12-0.84c0-5.76,2.36-13.71,11.63-14.42h0.29C444.67,149.12,445.79,161.93,445.79,162.07z"
		/>
	<path class="st15" d="M454.99,132.41l6.85-0.04l-0.83,14.29c-0.02,0.42-0.13,0.92-0.5,1.19c-2.8,2.01-5.19,1.03-5.19,1.03
		c-2.31-0.55-0.63-1.6-0.3-4.21L454.99,132.41z"/>
	<path class="st15" d="M454.13,129.19c-3.32,4.17-3.7,7.85-3.6,11.67c0.14,4.84,6.58,4.9,10.68,2.35c3.64-2.26,5.35-6.42,4.45-10.36
		C464.5,127.72,457.72,124.68,454.13,129.19z"/>
	<g class="st16">
		<polygon points="454.69,146.09 458.59,144.51 454.99,144.87 		"/>
	</g>
	<path class="st15" d="M451.93,133.8c0,0-1.41,1.12-2.81,2.96c0,0,0.59,1.25,1.82,1.65L451.93,133.8z"/>
	<path class="st13" d="M466.39,132.09c-0.26-6.6-11.72-6.54-13.1-5.46c-2.67,2.09-0.52,4.44-0.52,4.44l0.57-0.42
		c0.09-0.05,0.2-0.09,0.32-0.14c1.69,0.25,7.59,1.46,5.79,6.11c-0.45,1.17,0.55,1.71,1.75,1.78c0.11,1.42,0.1,2.93-0.13,4.45
		C460.9,143.93,466.81,142.81,466.39,132.09z"/>
	<g>
		<g>
			<path class="st10" d="M418.6,169.07l-1.63,1.84l-22.87-20.24c-0.26-0.23-0.28-0.62-0.05-0.88l1.21-1.37L418.6,169.07z"/>
		</g>
		<path class="st1" d="M417.6,162.41c0.66,0.59,1.04,1.44,1.03,2.32l-0.04,4.34l-23.34-20.65l6.73,1.04c0.79,0.12,1.52,0.47,2.12,1
			L417.6,162.41z"/>
	</g>
	<path class="st15" d="M457.32,139.31c0.53,0.8,1.89,0.83,3.03,0.07c1.15-0.76,1.65-2.02,1.12-2.82c-0.53-0.8-1.89-0.83-3.03-0.07
		C457.29,137.25,456.79,138.51,457.32,139.31z"/>
	<path class="st10" d="M463.61,190.4c0,0,0.42-10.12,1.32-14.38c0.5-2.39,1.32-5,2.02-7.81c-8.51-0.78-16.68-4.25-22.28-7.19
		c-0.07,1.84,0.07,4.23,0.38,8.06l-1.75,7.92l-2.43,14.51C454.04,195.26,463.61,190.4,463.61,190.4z"/>
	<path class="st17" d="M455,147.8"/>
</g>
<path class="st10" d="M459.41,199.58l-4.44-1.2c5.72-21.11,8.51-40.86,6.09-43.14c-1.58-1.42-2.61-1.35-3.24-1.17
	c-3.36,0.93-6.6,8.25-7.64,11.64l-3.48-1.35c0.4-1.31,3.22-12.87,9.89-14.72c1.78-0.49,4.53-0.52,7.54,2.18
	C470.1,157.17,462.82,187.01,459.41,199.58z"/>
<g>
	<path class="st5" d="M458.21,152.53c0,0-4.48-0.01-9.34,9.62c-4.86,9.63-7.39,12.19-7.39,12.19l-22.9-10.1l-3.97,5.16
		c0,0,24.48,20.89,30.2,17.35C455.47,180.15,473.02,152.2,458.21,152.53z"/>
	<path class="st15" d="M414.61,169.39c0,0-5.23,0.43-6.46-2.67c-0.79-1.98-3.58-6.39-0.82-4.35c1.73,1.28,4.1,3.66,4.81,2.66
		c0.69-0.97-2.92-1.35-1.99-3.27l6.14,3.44L414.61,169.39z"/>
</g>
<polygon class="st5" points="412.81,170.7 415.41,172.07 419.77,164.37 417.17,163 "/>
<g>
	<g>
		<path class="st5" d="M467.19,134.27l-14.34-7.29c2.01-3.96,6.85-5.54,10.82-3.53C467.63,125.47,469.21,130.31,467.19,134.27"/>
	</g>
	<path class="st8" d="M460.73,122.61c0.99,0.09,1.99,0.36,2.93,0.84c3.96,2.01,5.54,6.85,3.53,10.82l-3.73-1.9
		C464.99,128.86,463.81,124.79,460.73,122.61z"/>
	
		<rect x="457.7" y="120.7" transform="matrix(0.4283 -0.9036 0.9036 0.4283 144.8132 488.9564)" class="st8" width="2.3" height="18.66"/>
</g>
<g>
	<g>
		<polygon class="st9" points="428.9,267.65 401.85,267.65 410.66,223.07 420.09,223.07 		"/>
		<rect x="395.45" y="265.43" class="st9" width="38.6" height="4.61"/>
	</g>
	<polygon class="st9" points="428.9,267.65 401.85,267.65 410.66,223.07 420.09,223.07 	"/>
	<polygon class="st1" points="406.93,241.96 423.82,241.96 422.44,234.98 408.3,234.98 	"/>
	<polygon class="st1" points="403.7,258.3 427.05,258.3 425.67,251.32 405.08,251.32 	"/>
</g>
<g>
	<g>
		<path class="st3" d="M226.64,276.7c0.55,0,1.04-0.38,1.15-0.94l20.47-99.86c0.13-0.64-0.28-1.26-0.92-1.39
			c-0.63-0.13-1.26,0.28-1.39,0.92l-20.47,99.86c-0.13,0.64,0.28,1.26,0.92,1.39C226.48,276.69,226.56,276.7,226.64,276.7z"/>
		<path class="st3" d="M246.15,185.51h29.54c0.65,0,1.18-0.53,1.18-1.18s-0.53-1.18-1.18-1.18h-29.54c-0.65,0-1.18,0.53-1.18,1.18
			S245.5,185.51,246.15,185.51z"/>
		<path class="st3" d="M243.27,198.36h29.54c0.65,0,1.18-0.53,1.18-1.18c0-0.65-0.53-1.18-1.18-1.18h-29.54
			c-0.65,0-1.18,0.53-1.18,1.18C242.09,197.83,242.62,198.36,243.27,198.36z"/>
		<path class="st3" d="M240.79,211.2h29.54c0.65,0,1.18-0.53,1.18-1.18s-0.53-1.18-1.18-1.18h-29.54c-0.65,0-1.18,0.53-1.18,1.18
			S240.14,211.2,240.79,211.2z"/>
		<path class="st3" d="M238.12,224.05h29.54c0.65,0,1.18-0.53,1.18-1.18c0-0.65-0.53-1.18-1.18-1.18h-29.54
			c-0.65,0-1.18,0.53-1.18,1.18C236.94,223.52,237.47,224.05,238.12,224.05z"/>
		<path class="st3" d="M235.59,236.89h29.54c0.65,0,1.18-0.53,1.18-1.18c0-0.65-0.53-1.18-1.18-1.18h-29.54
			c-0.65,0-1.18,0.53-1.18,1.18C234.42,236.36,234.94,236.89,235.59,236.89z"/>
		<path class="st3" d="M233.09,249.73h29.54c0.65,0,1.18-0.53,1.18-1.18c0-0.65-0.53-1.18-1.18-1.18h-29.54
			c-0.65,0-1.18,0.53-1.18,1.18C231.91,249.21,232.44,249.73,233.09,249.73z"/>
		<path class="st3" d="M230.54,262.58h29.54c0.65,0,1.18-0.53,1.18-1.18c0-0.65-0.53-1.18-1.18-1.18h-29.54
			c-0.65,0-1.18,0.53-1.18,1.18C229.36,262.05,229.89,262.58,230.54,262.58z"/>
		<path class="st3" d="M258.25,276.7c0.55,0,1.04-0.38,1.15-0.94l20.47-99.86c0.13-0.64-0.28-1.26-0.92-1.39
			c-0.63-0.13-1.26,0.28-1.39,0.92l-20.47,99.86c-0.13,0.64,0.28,1.26,0.92,1.39C258.09,276.69,258.17,276.7,258.25,276.7z"/>
	</g>
</g>
<g>
	<g>
		<line class="st18" x1="355.58" y1="111.8" x2="361.63" y2="127.19"/>
		<polyline class="st19" points="339.66,108.11 341.64,111.57 355.32,111.09 365.36,102.15 363.86,97.11 		"/>
		<line class="st19" x1="365" y1="96.17" x2="338.35" y2="107.95"/>
		<path class="st8" d="M361.28,103.13l-15.58,6.54c-2.25,0.94-4.86-0.12-5.8-2.37l0,0c-0.94-2.25,0.12-4.86,2.37-5.8l15.58-6.54
			c2.25-0.94,4.86,0.12,5.8,2.37l0,0C364.6,99.58,363.53,102.19,361.28,103.13z"/>
		<path class="st5" d="M344.82,107.93l15.58-6.54c2.04-0.86,3.09-3.08,2.57-5.16c-1.21-1.46-3.27-2.04-5.11-1.27l-15.58,6.54
			c-2.04,0.85-3.09,3.08-2.57,5.16C340.92,108.11,342.98,108.7,344.82,107.93z"/>
	</g>
	<g>
		<g>
			<polygon class="st10" points="341.39,250.75 321.16,250.75 317.44,223.07 345.12,223.07 			"/>
			<path class="st20" d="M319.26,223.76c0-6.64,5.38-12.02,12.02-12.02c6.64,0,12.02,5.38,12.02,12.02"/>
		</g>
		<path class="st5" d="M339.47,223.98c0.19-0.18,0.22-0.52,0.16-0.91h-16.66c-0.32,1.89,0.46,3.95,1.14,4.04
			c0.84,0.11,1.42-2.81,2.45-2.74c0.86,0.06,2.06,2.04,1.22,6.75c-0.73,4.16,1.8,5.04,2.08,4.99c2.59-0.49,0.91-9.99,3.21-10.66
			c0.87-0.25,1.73,1.03,2.89,0.54c0.96-0.4,1-1.54,2.15-1.86C338.81,223.93,339.19,224.25,339.47,223.98z"/>
	</g>
	<g>
		<g>
			<g>
				<path class="st5" d="M356.96,198.19l13.02,2.31l9.8-5.07c0,0-0.98-6.92-0.92-8.85c0.13-4.64,2.37-15.09-0.93-22.54
					c-2.43-5.48-6.95-2.99-12.67-1.18l-6.44,0.7c0,0-10.32-6.24-3.11,22.52C356.53,189.35,356.96,198.19,356.96,198.19z"/>
				<g>
					<path class="st11" d="M362.34,142.94c-2.56,2.62-3.63,6.67-3.56,10.46c0.08,4.1,6.4,4.31,9.86,2.12
						c3.07-1.94,5.09-6.02,4.3-9.36C371.91,141.82,365.76,139.45,362.34,142.94z"/>
					<path class="st11" d="M361.01,144.82c0,0-1.56,1.83-2.87,2.23c0,0,0.35,1.18,1.38,1.7L361.01,144.82z"/>
				</g>
				<g>
					<path class="st5" d="M353.15,165.98l-3.31,12.65l-2.07,6.54l-12.64,22.24l3.95,2.64l15.96-22.4l2.45-6.96l9.49-18.46
						c0.76-2.17-3.86-2.08-6.03-2.85C358.77,158.62,354.71,161.46,353.15,165.98z"/>
					<path class="st11" d="M335.66,206.46c0,0-4.78,5.29-1.51,4.93c2.3-0.25,0.63-0.58,0.63-0.58s-3.26,2.86-1.82,2.81
						c1.44-0.05,4.48,1.23,5.21-0.74c0.89-2.38,1.31-3.78,1.31-3.78L335.66,206.46z"/>
					
						<rect x="336.65" y="203.71" transform="matrix(0.5629 -0.8265 0.8265 0.5629 -23.3696 370.0495)" class="st5" width="3.05" height="6.82"/>
				</g>
				<g>
					<g>
						<polygon class="st5" points="367.9,150.52 359.31,126.43 363.65,124.51 375.49,149.33 376.7,156.61 368.81,157.32 						"/>
						<path class="st5" d="M375.38,174.1c-2.27,0.37-4.41-1.16-4.78-3.42l-1.79-13.37l7.89-0.7l2.51,11.68
							C379.58,170.56,377.64,173.73,375.38,174.1z"/>
					</g>
					<path class="st11" d="M360.64,126.84c0,0-4.93-5.23-2.86-6.27l1.53,2.5c0,0-1.8-6.42-0.39-6.12c1.41,0.3,4.49,2.09,4.17,4.17
						c-0.38,2.48-0.59,4.55-0.59,4.55L360.64,126.84z"/>
					
						<rect x="360.47" y="123.63" transform="matrix(0.3711 0.9286 -0.9286 0.3711 345.2059 -256.535)" class="st5" width="3.05" height="5.93"/>
				</g>
				<polygon class="st11" points="361.36,153.53 361.96,167.08 369.37,164.71 365.88,152.34 				"/>
				<path class="st10" d="M363.73,192.15c0.39-15.53-1.59-27.82-2.84-32.79c-0.9-0.29-2.12,0.03-3.35,0.82
					c1.18,4.64,3.15,15.84,2.75,31.88L363.73,192.15z"/>
			</g>
			<g>
				<g>
					<path class="st10" d="M381.93,206.9c1.64-11.78-2.9-19.76-2.9-19.76c-7.62,4.24-22.64,3.26-22.64,3.26l-2.13,19.91l-1.18,22.06
						c0,0,0.5,12.34,5.69,28.75l5.87-0.94c0,0,1.07-11.65-0.92-28.25c0,0,2.95-11.87,4.56-17.99c0.11-0.4,1.85-1.04,1.94-1.39
						C370.22,212.54,378.98,212.08,381.93,206.9z"/>
					<path class="st10" d="M372.01,260.93l5.14-0.76c0,0,2.4-12.03,0.02-27.91c0,0,4.08-9.01,4.42-23.3
						c0.14-0.7,0.24-1.39,0.34-2.07c-2.95,5.18-11.71,5.65-11.71,5.65l-3.77,20.83C366.45,233.37,368,243.37,372.01,260.93z"/>
					<path class="st14" d="M373.12,212.13c-1.68,0.35-2.91,0.42-2.91,0.42l-3.77,20.83c0,0,1.53,9.89,5.49,27.26
						c0.6-0.39,1.09-0.88,1.34-1.46c0.52-1.2-0.27-1.97-1.24-5.79c-0.61-2.39-0.28-2.03-1.24-6.83c-0.73-3.68-1.1-5.52-1.45-6.41
						c-0.98-2.52-1.97-3.59-1.45-4.96c0.5-1.31,1.85-1.54,1.86-2.69c0.01-0.97-0.95-1.36-1.45-2.28c-1.18-2.17,1.18-5.56,1.86-6.62
						C371.59,221.39,372.97,217.89,373.12,212.13z"/>
				</g>
				<polygon class="st11" points="358.77,261.12 359.88,264.73 363.98,264.42 363.96,260.34 				"/>
				<g>
					<path class="st5" d="M352.44,270.12c0,0,0.05-2.43,4.61-3.18c2.41-0.4,1.18-2.19,1.18-2.19l4.5-1.38l-4.29,7.55L352.44,270.12z
						"/>
					<g>
						<path class="st10" d="M363.44,263.32c-3.03-0.01-2.81,2.57-3.27,4.21l0,0c0,0-2.14,3.07-6.7,2.71
							c1.09,0.15,2.84,0.39,4.22,0.58c1.4,0.19,2.81,0.1,4.17-0.26l2.55-0.69c1.48-0.81,3.09-6.4-0.72-6.55
							C363.61,263.32,363.52,263.32,363.44,263.32z"/>
						<path class="st8" d="M352.72,270.16c0.26,0.04,0.5,0.06,0.74,0.08C352.55,270.12,352.1,270.06,352.72,270.16z"/>
					</g>
				</g>
				<polygon class="st11" points="372.01,260.93 373.07,264.56 377.16,264.25 377.15,260.18 				"/>
				<g>
					<path class="st5" d="M365.62,269.96c0,0,0.05-2.43,4.61-3.18c2.41-0.4,1.18-2.19,1.18-2.19l4.5-1.38l-4.29,7.55L365.62,269.96z
						"/>
					<g>
						<path class="st10" d="M376.62,263.15c-3.03-0.01-2.81,2.57-3.27,4.21l0,0c0,0-2.13,3.07-6.7,2.71
							c1.09,0.15,2.84,0.39,4.22,0.58c1.4,0.19,2.81,0.1,4.17-0.26l2.55-0.69c1.48-0.81,3.09-6.4-0.72-6.55
							C376.79,263.15,376.71,263.15,376.62,263.15z"/>
						<path class="st8" d="M365.91,270c0.26,0.04,0.5,0.06,0.75,0.08C365.74,269.95,365.28,269.9,365.91,270z"/>
					</g>
				</g>
			</g>
			
				<rect x="357.54" y="258.73" transform="matrix(0.9941 -0.1083 0.1083 0.9941 -26.0677 40.6651)" class="st10" width="7.67" height="3.23"/>
			
				<rect x="370.75" y="257.97" transform="matrix(0.9941 -0.1083 0.1083 0.9941 -25.9076 42.0904)" class="st10" width="7.67" height="3.23"/>
			<path class="st1" d="M361.23,158.53l-0.12,2.27c0,0,3,1.04,4.87,0.49c1.87-0.56,2.52-2.31,2.52-2.31l-0.63-1.69
				C367.87,157.3,366.18,159.96,361.23,158.53z"/>
			<path class="st13" d="M362.68,139.74c0,0-4.39,3.97,0.99,8.04c0,0,1.99,1.45-0.95,4.98c-0.6,0.72-0.6,1.77,0.01,2.49
				c1.79,2.1,5.7,5.18,9.87-1.31c1.93-3.01,2.19-6.54,0.58-8.63c-1.54-2-2.96-3.13-5.35-3.95
				C365.66,140.59,364.52,140.85,362.68,139.74z"/>
			<path class="st13" d="M362.7,152.75c-5.18,4.48-4.88,10.64-4.87,11.6c0.04,4.95,5.01,8.92,5.12,10.09
				c0.3,3.18-4.81,9.89-4.08,13.22c1.06,4.81,9.61,6.56,18,3.06c9.59-4,10.83-16.77,2.27-25.54c-3.79-3.88-2.55-11.49-3.27-17.04
				c-0.44-3.35-1.42,0.19-3.04-2.29c-2.42-3.7-8.37-4.97-9.29-3.84c-0.87,1.06,2.93,3.81,2.09,7.04
				C365.21,150.66,364.7,151.02,362.7,152.75z"/>
			<path class="st11" d="M365.26,149.01c0.34,0.67-0.04,1.55-0.87,1.98c-0.82,0.43-1.77,0.23-2.12-0.43
				c-0.34-0.67,0.05-1.55,0.87-1.98C363.97,148.15,364.92,148.34,365.26,149.01z"/>
		</g>
	</g>
	<g>
		<g>
			<path class="st5" d="M375.39,150.52l-12.62-9.97c2.75-3.49,7.81-4.08,11.3-1.33C377.55,141.97,378.14,147.03,375.39,150.52"/>
		</g>
		<path class="st8" d="M371.35,137.82c0.96,0.28,1.88,0.74,2.71,1.4c3.49,2.75,4.08,7.81,1.33,11.3l-3.29-2.6
			C374.29,144.78,373.94,140.56,371.35,137.82z"/>
		
			<rect x="366.89" y="135.39" transform="matrix(0.598 -0.8015 0.8015 0.598 31.9684 353.1647)" class="st8" width="2.3" height="18.66"/>
	</g>
</g>
</svg>
