<?xml version="1.0" encoding="utf-8"?>
<!-- Generator: Adobe Illustrator 26.0.1, SVG Export Plug-In . SVG Version: 6.00 Build 0)  -->
<svg version="1.1" id="Layer_1" xmlns="http://www.w3.org/2000/svg" xmlns:xlink="http://www.w3.org/1999/xlink" x="0px" y="0px"
	 viewBox="0 0 100 100" style="enable-background:new 0 0 100 100;" xml:space="preserve">
<style type="text/css">
	.st0{fill:#39B54A;}
	.st1{fill:#FFFFFF;}
</style>
<path class="st0" d="M49.69,90.17c-22.02-0.02-40.04-18.13-40-40.22C9.72,27.95,27.86,9.95,49.96,10
	c21.99,0.05,39.97,18.21,39.9,40.32C89.79,72.22,71.67,90.19,49.69,90.17z M72.27,34.05c-15.08,0-29.99,0-45,0
	c7.62,7.61,15.09,15.08,22.5,22.49C57.19,49.14,64.65,41.67,72.27,34.05z M41.92,51.96c-4.93,4.93-9.6,9.59-14.23,14.21
	c14.71,0,29.61,0,44.37,0c-4.7-4.7-9.4-9.4-14.23-14.22c-2.53,2.61-5.21,5.38-8.01,8.27C47.03,57.31,44.41,54.57,41.92,51.96z
	 M39.22,50.09c-4.5-4.52-9.21-9.25-13.93-13.99c0,9.32,0,18.73,0,27.91C29.93,59.38,34.64,54.67,39.22,50.09z M74.26,36.16
	c-4.71,4.69-9.43,9.39-13.84,13.78c4.55,4.54,9.26,9.24,13.84,13.81C74.26,54.72,74.26,45.36,74.26,36.16z"/>
<path class="st1" d="M72.27,34.05c-7.62,7.62-15.09,15.09-22.49,22.49c-7.42-7.41-14.89-14.88-22.5-22.49
	C42.28,34.05,57.19,34.05,72.27,34.05z"/>
<path class="st1" d="M41.92,51.96c2.5,2.61,5.12,5.35,7.91,8.26c2.8-2.89,5.48-5.66,8.01-8.27c4.83,4.82,9.53,9.52,14.23,14.22
	c-14.76,0-29.66,0-44.37,0C32.32,61.55,36.98,56.89,41.92,51.96z"/>
<path class="st1" d="M39.22,50.09c-4.58,4.58-9.29,9.29-13.93,13.93c0-9.18,0-18.59,0-27.91C30,40.84,34.71,45.57,39.22,50.09z"/>
<path class="st1" d="M74.26,36.16c0,9.2,0,18.56,0,27.58c-4.57-4.56-9.29-9.27-13.84-13.81C64.82,45.55,69.55,40.84,74.26,36.16z"/>
<g>
	<polygon points="175.92,23.09 176.09,22.82 175.47,22.82 	"/>
	<path class="st0" d="M194.65-44.41c-20.11,0-36.47,16.36-36.47,36.47c0,7.32,2.17,14.14,5.89,19.85c0.52,0.79,1.06,1.56,1.64,2.31
		c1.7,2.21,3.64,4.22,5.79,5.99c1.14,0.94,2.34,1.81,3.58,2.61c5.66,3.61,12.38,5.71,19.58,5.71c7.07,0,13.83-2.03,19.6-5.71
		c1.24-0.79,2.44-1.66,3.58-2.61c2.12-1.75,4.05-3.74,5.76-5.96l-1.47-2.39c-2.4,3.33-5.33,6.14-8.65,8.36
		c-1.48,0.99-3.03,1.86-4.64,2.61c-4.38,2.02-9.2,3.11-14.19,3.11c-5.05,0-9.85-1.11-14.16-3.11c-1.15-0.53-2.26-1.12-3.34-1.77
		c-0.44-0.27-0.88-0.55-1.3-0.83c-0.29-0.2-0.58-0.4-0.87-0.6c-3-2.15-5.64-4.78-7.8-7.77c-0.56-0.78-1.09-1.58-1.58-2.4
		c-3.05-5.08-4.81-11.03-4.81-17.38c0-18.67,15.19-33.87,33.87-33.87c18.67,0,33.87,15.19,33.87,33.87c0,0.85-0.03,1.71-0.1,2.55
		l-13.79,0.02l-3.05,0l-18.57,0.02l-1.57,2.61l21.73-0.03l3.05,0l14.55-0.02l0.13-1.16c0.14-1.32,0.22-2.66,0.22-4
		C231.12-28.05,214.76-44.41,194.65-44.41z"/>
	<g>
		<path d="M162.01,20.22l3.69-5.99c-0.57-0.75-1.12-1.52-1.64-2.31l-4.47,7.25c-0.46,0.74-0.48,1.67-0.05,2.43
			c0.42,0.76,1.23,1.23,2.09,1.23h13.43c-1.25-0.8-2.44-1.67-3.58-2.61H162.01z"/>
		<path d="M229.66,19.17L216.23-2.77l-3.05,0l8.95,14.62l1.47,2.39l3.65,5.96h-9.41c-1.14,0.94-2.34,1.81-3.58,2.61h13.36
			c0.87,0,1.67-0.47,2.09-1.23C230.13,20.84,230.11,19.91,229.66,19.17z"/>
		<path d="M203.73-23.18l-0.55-0.9l-6.4-10.45c-0.44-0.72-1.2-1.15-2.04-1.15c0,0,0,0,0,0c-0.84,0-1.6,0.43-2.04,1.14l-27.1,43.98
			c0.49,0.82,1.02,1.62,1.58,2.4l27.56-44.73l5.95,9.72L189.97-5.34l-1.57,2.61l-13.43,22.34c0.29,0.21,0.58,0.41,0.87,0.6
			c0.43,0.29,0.86,0.56,1.3,0.83l0.5-0.83l13.79-22.95l1.57-2.61l9.21-15.32l9.37,15.3l3.05,0L203.73-23.18z"/>
	</g>
</g>
</svg>
