<?xml version="1.0" encoding="utf-8"?>
<!-- Generator: Adobe Illustrator 26.0.1, SVG Export Plug-In . SVG Version: 6.00 Build 0)  -->
<svg version="1.1" id="Layer_1" xmlns="http://www.w3.org/2000/svg" xmlns:xlink="http://www.w3.org/1999/xlink" x="0px" y="0px"
	 viewBox="0 0 2000 2000" style="enable-background:new 0 0 2000 2000;" xml:space="preserve">
<style type="text/css">
	.st0{font-family:'FuturaPT-Book';}
	.st1{font-size:156.2238px;}
	.st2{letter-spacing:5.74;}
	.st3{fill:#F49807;}
	.st4{fill:#39B54A;}
</style>
<g>
	<text transform="matrix(1.0457 0 0 1 305.1716 1459.0938)"><tspan x="0" y="0" class="st0 st1 st2">Aspen</tspan><tspan x="466.64" y="0" class="st3 st0 st1 st2"> </tspan><tspan x="506" y="0" class="st4 st0 st1 st2">EssentialS</tspan></text>
</g>
<g>
	<polygon points="815.75,1171.03 817.43,1168.23 811.1,1168.23 	"/>
	<path class="st4" d="M1009.35,473c-207.96,0-377.15,169.19-377.15,377.15c0,75.66,22.41,146.18,60.93,205.3
		c5.34,8.19,10.98,16.16,16.92,23.89c17.54,22.85,37.61,43.65,59.83,61.96c11.77,9.7,24.15,18.7,37.05,26.94
		c58.52,37.37,127.99,59.06,202.43,59.06c73.06,0,143.06-21.02,202.7-59.06c12.86-8.2,25.24-17.19,37.06-26.94
		c21.91-18.06,41.91-38.69,59.54-61.67l-15.16-24.76c-24.8,34.38-55.16,63.49-89.43,86.43c-15.28,10.23-31.33,19.25-48.01,26.94
		c-45.28,20.88-95.18,32.12-146.69,32.12c-52.24,0-101.84-11.52-146.42-32.12c-11.87-5.48-23.39-11.6-34.49-18.33
		c-4.57-2.77-9.06-5.64-13.49-8.61c-3.04-2.04-6.05-4.11-9.02-6.24c-31.05-22.24-58.33-49.42-80.68-80.38
		c-5.79-8.02-11.25-16.29-16.36-24.8c-31.57-52.58-49.75-114.06-49.75-179.72c0-193.11,157.1-350.21,350.21-350.21
		c193.1,0,350.21,157.1,350.21,350.21c0,8.8-0.33,17.64-0.98,26.42l-142.54,0.17l-31.56,0.04l-192.06,0.23l-16.2,26.96l224.73-0.27
		l31.56-0.04l150.44-0.18l1.31-11.99c1.49-13.63,2.24-27.53,2.24-41.33C1386.5,642.19,1217.31,473,1009.35,473z"/>
	<g>
		<path d="M671.87,1141.3l38.18-61.96c-5.94-7.74-11.59-15.7-16.92-23.89l-46.2,74.96c-4.71,7.65-4.92,17.27-0.54,25.11
			c4.38,7.84,12.68,12.71,21.66,12.71h138.87c-12.9-8.24-25.27-17.24-37.05-26.94H671.87z"/>
		<path d="M1371.37,1130.47l-138.85-226.82l-31.56,0.04l92.55,151.17l15.16,24.76l37.75,61.67h-97.29
			c-11.82,9.75-24.2,18.74-37.06,26.94h138.15c8.97,0,17.26-4.86,21.64-12.68C1376.23,1147.73,1376.05,1138.12,1371.37,1130.47z"/>
		<path d="M1103.26,692.52l-5.7-9.31l-66.14-108.04c-4.54-7.41-12.43-11.84-21.12-11.86c-0.01,0-0.03,0-0.04,0
			c-8.67,0-16.57,4.41-21.12,11.79l-280.25,454.76c5.11,8.51,10.57,16.78,16.36,24.8l285-462.48l61.5,100.46L960.96,877.04
			L944.76,904l-138.83,231.05c2.97,2.13,5.98,4.2,9.02,6.24c4.43,2.97,8.92,5.84,13.49,8.61l5.17-8.61l142.6-237.33l16.2-26.96
			l95.2-158.44l96.85,158.21l31.56-0.04L1103.26,692.52z"/>
	</g>
</g>
</svg>
