<?xml version="1.0" encoding="utf-8"?>
<!-- Generator: Adobe Illustrator 26.0.1, SVG Export Plug-In . SVG Version: 6.00 Build 0)  -->
<svg version="1.1" id="Layer_1" xmlns="http://www.w3.org/2000/svg" xmlns:xlink="http://www.w3.org/1999/xlink" x="0px" y="0px"
	 viewBox="0 0 238 186" style="enable-background:new 0 0 238 186;" xml:space="preserve">
<style type="text/css">
	.st0{fill:#39B54A;}
</style>
<g>
	<g>
		<g>
			<path d="M14.43,161.7l-1.75,5.06h-2.25l5.71-16.08h2.62l5.74,16.08h-2.32l-1.8-5.06H14.43z M19.95,160.08l-1.65-4.63
				c-0.37-1.05-0.62-2-0.87-2.94h-0.05c-0.25,0.95-0.52,1.93-0.85,2.91l-1.65,4.65H19.95z"/>
			<path d="M27.68,164.23c0.97,0.57,2.39,1.05,3.89,1.05c2.22,0,3.52-1.12,3.52-2.74c0-1.5-0.9-2.36-3.17-3.2
				c-2.74-0.93-4.44-2.29-4.44-4.56c0-2.51,2.17-4.37,5.44-4.37c1.72,0,2.97,0.38,3.72,0.79l-0.6,1.69
				c-0.55-0.29-1.67-0.76-3.19-0.76c-2.29,0-3.17,1.31-3.17,2.41c0,1.5,1.02,2.24,3.34,3.1c2.84,1.05,4.29,2.36,4.29,4.73
				c0,2.48-1.92,4.63-5.89,4.63c-1.62,0-3.39-0.45-4.29-1.03L27.68,164.23z"/>
			<path d="M41.28,150.87c1.05-0.17,2.42-0.31,4.17-0.31c2.15,0,3.72,0.48,4.71,1.34c0.92,0.76,1.47,1.93,1.47,3.36
				c0,1.46-0.45,2.6-1.3,3.44c-1.15,1.17-3.02,1.77-5.14,1.77c-0.65,0-1.25-0.02-1.75-0.14v6.44h-2.17V150.87z M43.45,158.62
				c0.47,0.12,1.07,0.17,1.8,0.17c2.62,0,4.22-1.22,4.22-3.44c0-2.12-1.57-3.15-3.97-3.15c-0.95,0-1.67,0.07-2.05,0.17V158.62z"/>
			<path d="M64.26,159.22h-6.54v5.8h7.28v1.74h-9.45v-16.08h9.08v1.74h-6.91v5.08h6.54V159.22z"/>
			<path d="M68.83,166.76v-16.08h2.37l5.39,8.14c1.25,1.88,2.22,3.58,3.02,5.23l0.05-0.02c-0.2-2.15-0.25-4.1-0.25-6.61v-6.73h2.05
				v16.08h-2.2l-5.34-8.16c-1.17-1.79-2.29-3.63-3.14-5.37l-0.07,0.02c0.12,2.03,0.17,3.96,0.17,6.63v6.87H68.83z"/>
			<path class="st0" d="M101.24,159.22H94.7v5.8h7.28v1.74h-9.45v-16.08h9.08v1.74H94.7v5.08h6.54V159.22z"/>
			<path class="st0" d="M105.51,164.23c0.97,0.57,2.39,1.05,3.89,1.05c2.22,0,3.52-1.12,3.52-2.74c0-1.5-0.9-2.36-3.17-3.2
				c-2.74-0.93-4.44-2.29-4.44-4.56c0-2.51,2.17-4.37,5.44-4.37c1.72,0,2.97,0.38,3.72,0.79l-0.6,1.69
				c-0.55-0.29-1.67-0.76-3.19-0.76c-2.29,0-3.17,1.31-3.17,2.41c0,1.5,1.02,2.24,3.34,3.1c2.84,1.05,4.29,2.36,4.29,4.73
				c0,2.48-1.92,4.63-5.89,4.63c-1.62,0-3.39-0.45-4.29-1.03L105.51,164.23z"/>
			<path class="st0" d="M118.81,164.23c0.97,0.57,2.39,1.05,3.89,1.05c2.22,0,3.52-1.12,3.52-2.74c0-1.5-0.9-2.36-3.17-3.2
				c-2.74-0.93-4.44-2.29-4.44-4.56c0-2.51,2.17-4.37,5.44-4.37c1.72,0,2.97,0.38,3.72,0.79l-0.6,1.69
				c-0.55-0.29-1.67-0.76-3.19-0.76c-2.29,0-3.17,1.31-3.17,2.41c0,1.5,1.02,2.24,3.34,3.1c2.84,1.05,4.29,2.36,4.29,4.73
				c0,2.48-1.92,4.63-5.89,4.63c-1.62,0-3.39-0.45-4.29-1.03L118.81,164.23z"/>
			<path class="st0" d="M141.11,159.22h-6.54v5.8h7.28v1.74h-9.45v-16.08h9.08v1.74h-6.91v5.08h6.54V159.22z"/>
			<path class="st0" d="M145.68,166.76v-16.08h2.37l5.39,8.14c1.25,1.88,2.22,3.58,3.02,5.23l0.05-0.02
				c-0.2-2.15-0.25-4.1-0.25-6.61v-6.73h2.05v16.08h-2.2l-5.34-8.16c-1.17-1.79-2.29-3.63-3.14-5.37l-0.07,0.02
				c0.12,2.03,0.17,3.96,0.17,6.63v6.87H145.68z"/>
			<path class="st0" d="M166.29,152.44h-5.11v-1.77h12.45v1.77h-5.14v14.32h-2.2V152.44z"/>
			<path class="st0" d="M178.66,150.68v16.08h-2.17v-16.08H178.66z"/>
			<path class="st0" d="M186.17,161.7l-1.75,5.06h-2.24l5.71-16.08h2.62l5.74,16.08h-2.32l-1.8-5.06H186.17z M191.69,160.08
				l-1.65-4.63c-0.37-1.05-0.62-2-0.87-2.94h-0.05c-0.25,0.95-0.52,1.93-0.85,2.91l-1.65,4.65H191.69z"/>
			<path class="st0" d="M199.72,150.68h2.17v14.34h7.18v1.74h-9.35V150.68z"/>
			<path class="st0" d="M212.2,164.23c0.97,0.57,2.39,1.05,3.89,1.05c2.22,0,3.52-1.12,3.52-2.74c0-1.5-0.9-2.36-3.17-3.2
				c-2.74-0.93-4.44-2.29-4.44-4.56c0-2.51,2.17-4.37,5.44-4.37c1.72,0,2.97,0.38,3.72,0.79l-0.6,1.69
				c-0.55-0.29-1.67-0.76-3.19-0.76c-2.29,0-3.17,1.31-3.17,2.41c0,1.5,1.02,2.24,3.34,3.1c2.84,1.05,4.29,2.36,4.29,4.73
				c0,2.48-1.92,4.63-5.89,4.63c-1.62,0-3.39-0.45-4.29-1.03L212.2,164.23z"/>
		</g>
	</g>
	<g>
		<polygon points="87.8,122.76 88.06,122.34 87.09,122.34 		"/>
		<path class="st0" d="M117.37,16.15c-31.76,0-57.6,25.84-57.6,57.6c0,11.56,3.42,22.33,9.31,31.36c0.81,1.25,1.68,2.47,2.58,3.65
			c2.68,3.49,5.74,6.67,9.14,9.46c1.8,1.48,3.69,2.86,5.66,4.11c8.94,5.71,19.55,9.02,30.92,9.02c11.16,0,21.85-3.21,30.96-9.02
			c1.96-1.25,3.85-2.63,5.66-4.11c3.35-2.76,6.4-5.91,9.09-9.42l-2.32-3.78c-3.79,5.25-8.43,9.7-13.66,13.2
			c-2.33,1.56-4.79,2.94-7.33,4.11c-6.92,3.19-14.54,4.91-22.41,4.91c-7.98,0-15.55-1.76-22.36-4.91c-1.81-0.84-3.57-1.77-5.27-2.8
			c-0.7-0.42-1.38-0.86-2.06-1.31c-0.46-0.31-0.92-0.63-1.38-0.95c-4.74-3.4-8.91-7.55-12.32-12.28c-0.88-1.23-1.72-2.49-2.5-3.79
			c-4.82-8.03-7.6-17.42-7.6-27.45c0-29.49,23.99-53.49,53.49-53.49c29.49,0,53.49,23.99,53.49,53.49c0,1.34-0.05,2.69-0.15,4.03
			l-21.77,0.03l-4.82,0.01l-29.33,0.04l-2.47,4.12l34.32-0.04l4.82-0.01l22.98-0.03l0.2-1.83c0.23-2.08,0.34-4.21,0.34-6.31
			C174.97,41.99,149.13,16.15,117.37,16.15z"/>
		<g>
			<path d="M65.83,118.22l5.83-9.46c-0.91-1.18-1.77-2.4-2.58-3.65l-7.06,11.45c-0.72,1.17-0.75,2.64-0.08,3.84
				c0.67,1.2,1.94,1.94,3.31,1.94h21.21c-1.97-1.26-3.86-2.63-5.66-4.11H65.83z"/>
			<path d="M172.66,116.57l-21.21-34.64l-4.82,0.01l14.13,23.09l2.32,3.78l5.77,9.42h-14.86c-1.81,1.49-3.7,2.86-5.66,4.11h21.1
				c1.37,0,2.64-0.74,3.31-1.94C173.4,119.21,173.38,117.74,172.66,116.57z"/>
			<path d="M131.71,49.68l-0.87-1.42l-10.1-16.5c-0.69-1.13-1.9-1.81-3.23-1.81c0,0,0,0-0.01,0c-1.32,0-2.53,0.67-3.23,1.8
				l-42.8,69.46c0.78,1.3,1.61,2.56,2.5,3.79l43.53-70.64l9.39,15.34l-16.92,28.16l-2.47,4.12l-21.2,35.29
				c0.45,0.32,0.91,0.64,1.38,0.95c0.68,0.45,1.36,0.89,2.06,1.31l0.79-1.31l21.78-36.25l2.47-4.12l14.54-24.2l14.79,24.16
				l4.82-0.01L131.71,49.68z"/>
		</g>
	</g>
</g>
</svg>
